<svg width="77" height="38" fill="none" xmlns="http://www.w3.org/2000/svg"><g opacity=".6" fill-rule="evenodd" clip-rule="evenodd" fill="#030D15"><path d="M.5 19.268c0-.927.634-1.68 1.417-1.68h72.007c.783 0 1.417.753 1.417 1.68 0 .927-.634 1.68-1.417 1.68H1.917c-.783 0-1.417-.753-1.417-1.68z"/><path d="M60.18.992c.553-.656 1.45-.656 2.004 0l14.401 17.07c.553.656.553 1.72 0 2.375L62.184 37.508c-.554.656-1.45.656-2.004 0-.553-.656-.553-1.719 0-2.375l13.4-15.883-13.4-15.883c-.553-.656-.553-1.72 0-2.375z"/></g></svg>