<svg width="18" height="18" fill="none" xmlns="http://www.w3.org/2000/svg"><path fill-rule="evenodd" clip-rule="evenodd" d="M6.839 15.555a.026.026 0 00.002-.01.026.026 0 00-.007-.016.025.025 0 00-.016-.007.025.025 0 00-.016.007.026.026 0 00-.007.016.026.026 0 00.007.017.025.025 0 00.016.007.025.025 0 00.016-.008.024.024 0 00.005-.006zm-1.498-.01a1.477 1.477 0 112.954 0 1.477 1.477 0 01-2.954 0zm9.498.01a.026.026 0 00.002-.01.026.026 0 00-.007-.016.026.026 0 00-.016-.007.026.026 0 00-.016.007.026.026 0 00-.007.016.026.026 0 00.007.017.026.026 0 00.016.007.026.026 0 00.016-.008.024.024 0 00.005-.006zm-1.498-.01a1.477 1.477 0 112.954 0 1.477 1.477 0 01-2.954 0zM.25 1A.75.75 0 011 .25h2.91a.75.75 0 01.735.603l.607 3.033H17a.75.75 0 01.737.89l-1.165 6.108a2.205 2.205 0 01-2.197 1.775H7.32a2.205 2.205 0 01-2.196-1.774l-1.215-6.07a.745.745 0 01-.013-.062l-.6-3.003H1A.75.75 0 01.25 1zm5.302 4.386l1.042 5.206a.704.704 0 00.704.567h7.098a.704.704 0 00.704-.565l.993-5.208H5.552z" fill="#030D15"/></svg>