<svg width="10" height="17" fill="none" xmlns="http://www.w3.org/2000/svg"><path fill-rule="evenodd" clip-rule="evenodd" d="M3.995 1.745A4.25 4.25 0 017 .5h2.25a.5.5 0 01.5.5v3a.5.5 0 01-.5.5H7a.25.25 0 00-.25.25V6.5h2.5a.5.5 0 01.485.621l-.75 3a.5.5 0 01-.485.379H6.75V16a.5.5 0 01-.5.5h-3a.5.5 0 01-.5-.5v-5.5H1a.5.5 0 01-.5-.5V7a.5.5 0 01.5-.5h1.75V4.75a4.25 4.25 0 011.245-3.005zM7 1.5a3.25 3.25 0 00-3.25 3.25V7a.5.5 0 01-.5.5H1.5v2h1.75a.5.5 0 01.5.5v5.5h2V10a.5.5 0 01.5-.5h1.86l.5-2H6.25a.5.5 0 01-.5-.5V4.75A1.25 1.25 0 017 3.5h1.75v-2H7z" fill="#fff"/></svg>