<svg width="14" height="15" fill="none" xmlns="http://www.w3.org/2000/svg"><path fill-rule="evenodd" clip-rule="evenodd" d="M7.02 1.5c-3.013 0-5.52 2.65-5.52 6s2.507 6 5.52 6c3.012 0 5.519-2.65 5.519-6s-2.507-6-5.52-6zM.5 7.5c0-3.83 2.883-7 6.52-7 3.635 0 6.519 3.17 6.519 7s-2.884 7-6.52 7C3.383 14.5.5 11.33.5 7.5z" fill="#fff"/><path fill-rule="evenodd" clip-rule="evenodd" d="M.5 7.5A.5.5 0 011 7h12.039a.5.5 0 110 1H1a.5.5 0 01-.5-.5z" fill="#fff"/><path fill-rule="evenodd" clip-rule="evenodd" d="M5.112 7.5c.042 2.083.717 4.082 1.907 5.694C8.21 11.582 8.885 9.583 8.927 7.5c-.042-2.083-.718-4.082-1.908-5.694C5.83 3.418 5.154 5.417 5.112 7.5zM7.019 1L6.638.677C5.055 2.547 4.16 4.969 4.112 7.49v.02c.048 2.52.943 4.942 2.526 6.813a.5.5 0 00.763 0c1.583-1.871 2.477-4.293 2.526-6.813v-.02C9.878 4.97 8.984 2.548 7.401.677L7.02 1z" fill="#fff"/></svg>