<svg width="17" height="17" fill="none" xmlns="http://www.w3.org/2000/svg"><path fill-rule="evenodd" clip-rule="evenodd" d="M5 1.5a3.25 3.25 0 00-3.25 3.25v7.5A3.25 3.25 0 005 15.5h7.5a3.25 3.25 0 003.25-3.25v-7.5A3.25 3.25 0 0012.5 1.5H5zM.75 4.75A4.25 4.25 0 015 .5h7.5a4.25 4.25 0 014.25 4.25v7.5a4.25 4.25 0 01-4.25 4.25H5a4.25 4.25 0 01-4.25-4.25v-7.5z" fill="#fff"/><path fill-rule="evenodd" clip-rule="evenodd" d="M9.15 5.994a2.5 2.5 0 10-.734 4.946 2.5 2.5 0 00.733-4.946zm-1.98-.633a3.5 3.5 0 113.224 6.213A3.5 3.5 0 017.17 5.36zm5.205-.986a.5.5 0 01.5-.5h.008a.5.5 0 010 1h-.008a.5.5 0 01-.5-.5z" fill="#fff"/></svg>