<svg width="15" height="16" fill="none" xmlns="http://www.w3.org/2000/svg"><path d="M7.455 9.012C2.648 9.012 0 11.286 0 15.416c0 .323.261.584.584.584h13.742a.584.584 0 00.584-.584c0-4.13-2.648-6.404-7.455-6.404zm-6.266 5.82c.23-3.088 2.335-4.652 6.266-4.652s6.036 1.565 6.266 4.652H1.19zM7.455 0C5.247 0 3.582 1.699 3.582 3.951c0 2.319 1.737 4.205 3.873 4.205s3.873-1.886 3.873-4.205C11.329 1.7 9.663 0 7.455 0zm0 6.988c-1.492 0-2.706-1.362-2.706-3.037 0-1.613 1.138-2.783 2.706-2.783 1.543 0 2.706 1.196 2.706 2.783 0 1.675-1.214 3.037-2.706 3.037z" fill="#030D15"/></svg>