<svg width="20" height="24" fill="none" xmlns="http://www.w3.org/2000/svg"><path fill-rule="evenodd" clip-rule="evenodd" d="M14.293.293a1 1 0 011.414 0l4 4a1 1 0 010 1.414l-4 4a1 1 0 01-1.414-1.414L17.586 5l-3.293-3.293a1 1 0 010-1.414z" fill="#030D15"/><path fill-rule="evenodd" clip-rule="evenodd" d="M5 6a3 3 0 00-3 3v2a1 1 0 11-2 0V9a5 5 0 015-5h14a1 1 0 110 2H5zm.707 8.293a1 1 0 010 1.414L2.414 19l3.293 3.293a1 1 0 11-1.414 1.414l-4-4a1 1 0 010-1.414l4-4a1 1 0 011.414 0z" fill="#030D15"/><path fill-rule="evenodd" clip-rule="evenodd" d="M19 12a1 1 0 011 1v2a5 5 0 01-5 5H1a1 1 0 110-2h14a3 3 0 003-3v-2a1 1 0 011-1z" fill="#030D15"/></svg>