<svg width="21" height="17" fill="none" xmlns="http://www.w3.org/2000/svg"><path fill-rule="evenodd" clip-rule="evenodd" d="M12.676.78a4.245 4.245 0 014.487.935A8.614 8.614 0 0019.353.6l.288.408.486.119a6.955 6.955 0 01-1.692 3.12c.022.172.033.347.034.522v.001c0 4.982-2.392 8.605-5.803 10.42-3.399 1.81-7.759 1.797-11.659-.37a.5.5 0 01.263-.936 9.23 9.23 0 004.795-1.124c-1.5-.811-2.53-1.81-3.213-2.89-.8-1.264-1.106-2.608-1.161-3.823a10.63 10.63 0 01.342-3.1 10.602 10.602 0 01.39-1.205l.03-.072.008-.02.002-.004a.498.498 0 01.025-.05l.434.248.41-.287A8.411 8.411 0 009.944 5.13v-.331a4.245 4.245 0 012.731-4.02zM3.091 2.872A9.618 9.618 0 002.691 6c.048 1.084.318 2.248 1.006 3.334.686 1.084 1.807 2.12 3.608 2.92a.5.5 0 01.077.87 10.23 10.23 0 01-4.12 1.636c3.115 1.153 6.349.923 8.934-.453 3.067-1.633 5.273-4.906 5.273-9.537 0-.202-.02-.403-.058-.6a.5.5 0 01.14-.45 5.953 5.953 0 001.137-1.562 9.611 9.611 0 01-1.528.607.5.5 0 01-.521-.15 3.245 3.245 0 00-5.694 2.173v.842a.5.5 0 01-.487.5 9.411 9.411 0 01-7.367-3.258z" fill="#fff"/></svg>