<svg width="20" height="15" fill="none" xmlns="http://www.w3.org/2000/svg"><path fill-rule="evenodd" clip-rule="evenodd" d="M9.64.5v1h-.242a109.606 109.606 0 00-2.733.047c-.788.023-1.615.058-2.33.11-.727.053-1.297.122-1.597.201a1.774 1.774 0 00-1.231 1.26 23.225 23.225 0 00-.366 4.22v.006a23.225 23.225 0 00.364 4.243 1.775 1.775 0 001.23 1.202c.3.08.871.149 1.6.202.715.052 1.542.087 2.33.11a112.066 112.066 0 002.734.047h.241v1h-.246l-.66-.005a112.98 112.98 0 01-2.098-.042 57.274 57.274 0 01-2.374-.113c-.722-.052-1.383-.125-1.786-.233h-.003A2.776 2.776 0 01.526 11.79 24.225 24.225 0 01.14 7.34a24.226 24.226 0 01.392-4.449A2.774 2.774 0 012.469.895l.007-.002C2.879.785 3.54.713 4.262.66A57.37 57.37 0 016.636.547 112.67 112.67 0 019.394.501h.182L9.641.5zm6.904 12.29c-.3.08-.87.148-1.597.201-.715.052-1.542.087-2.33.11a112.063 112.063 0 01-2.734.047h-.241l-.001.5v.5h.247l.66-.005c.551-.006 1.302-.018 2.098-.042a55.744 55.744 0 002.374-.113c.722-.052 1.382-.125 1.786-.233l.007-.002a2.775 2.775 0 001.943-2.028c.26-1.447.39-2.914.384-4.384a24.15 24.15 0 00-.384-4.45l-.492.089.485-.122a2.775 2.775 0 00-1.953-2c-.4-.098-1.057-.164-1.779-.212a62.76 62.76 0 00-2.372-.103A123.336 123.336 0 009.888.501h-.183L9.641.5v1h.242a119.062 119.062 0 012.735.043c.788.021 1.616.053 2.333.1.722.049 1.292.11 1.598.184a1.775 1.775 0 011.226 1.259c.252 1.403.374 2.826.365 4.251v.005a23.218 23.218 0 01-.365 4.188 1.774 1.774 0 01-1.23 1.26z" fill="#fff"/><path fill-rule="evenodd" clip-rule="evenodd" d="M7.549 4.233a.5.5 0 01.498-.003l4.704 2.676a.5.5 0 010 .869L8.047 10.45a.5.5 0 01-.747-.434V4.665a.5.5 0 01.249-.432zM8.3 5.525v3.631l3.193-1.816L8.3 5.525z" fill="#fff"/></svg>